<?xml version="1.0" encoding="UTF-8"?>
<svg version="1.1" xmlns="http://www.w3.org/2000/svg" width="1128" height="1540">
<path d="M0 0 C6.26887587 3.21884829 11.51651447 6.8208145 14.0234375 13.578125 C15.50964194 18.44030686 15.69360836 22.94823089 15.5625 28 C15.55734375 28.79857422 15.5521875 29.59714844 15.546875 30.41992188 C15.49040376 34.75055984 15.12909438 38.91419066 14.54394531 43.2097168 C7.13645068 114.51075954 35.81809156 192.5493846 80.3125 247.4375 C91.68997278 261.3547716 104.14017694 274.32738346 116.8125 287.0625 C117.44639648 287.70106934 118.08029297 288.33963867 118.73339844 288.99755859 C122.51686155 292.76811225 126.42238384 296.34292217 130.46435547 299.83447266 C132.89718985 301.94464314 135.25954524 304.1273054 137.625 306.3125 C142.14503729 310.43976163 146.81045132 314.32340135 151.57421875 318.1640625 C154.3449781 320.4644647 156.985878 322.86271472 159.625 325.3125 C165.33802004 330.56296018 171.37129087 335.30707139 177.50976562 340.04199219 C179.89073121 341.88511235 182.25464227 343.74940698 184.6184082 345.61450195 C204.52543095 361.31601051 224.85400144 376.46415657 245.3125 391.4375 C246.41343994 392.24501709 246.41343994 392.24501709 247.53662109 393.06884766 C259.01909383 401.47944587 270.71193522 409.55204513 282.49804688 417.53027344 C287.10998531 420.65557384 291.71074316 423.79723654 296.3125 426.9375 C298.14186849 428.18498176 299.97129565 429.4323775 301.80078125 430.6796875 C302.70779785 431.29811523 303.61481445 431.91654297 304.54931641 432.55371094 C307.33868223 434.45534963 310.12829646 436.35662342 312.91796875 438.2578125 C322.32997497 444.67269942 331.73751211 451.09398024 341.13623047 457.52832031 C349.92078798 463.54082937 358.71760636 469.53533557 367.51416016 475.53027344 C371.19979313 478.04224036 374.88497445 480.55486931 378.57006836 483.06762695 C380.39760867 484.31369935 382.22524532 485.55963046 384.05297852 486.80541992 C388.68832213 489.96507535 393.32212094 493.12695578 397.953125 496.29296875 C409.35585947 504.08480437 420.80165047 511.80623309 432.3125 519.4375 C439.11902049 515.75063473 445.42963985 511.36671327 451.8125 507 C453.04862537 506.15725461 454.2849582 505.31481344 455.52148438 504.47265625 C457.46317215 503.15013956 459.40470345 501.82739809 461.34558105 500.50369263 C467.84326429 496.0722471 474.35502145 491.66170557 480.8684082 487.25338745 C484.13153936 485.04468859 487.39392178 482.83488459 490.65625 480.625 C491.29840454 480.19001694 491.94055908 479.75503387 492.60217285 479.30686951 C496.87138297 476.41465728 501.13934201 473.52060741 505.40625 470.625 C505.9796109 470.23591461 506.5529718 469.84682922 507.14370728 469.44595337 C510.00685931 467.50282058 512.86963682 465.55913848 515.73193359 463.61474609 C521.92057744 459.41167995 528.11618765 455.21924795 534.3203125 451.0390625 C551.89248562 439.20129396 551.89248562 439.20129396 569.14819336 426.90917969 C574.35774337 423.09710127 579.65803393 419.43630538 585 415.8125 C591.34718468 411.50387868 597.5941198 407.09378618 603.75732422 402.52636719 C608.33437406 399.13859094 612.9654309 395.83571137 617.625 392.5625 C633.00450245 381.73956374 648.10709213 370.61541479 663.03466797 359.17626953 C665.92397934 356.97073088 668.83418113 354.79536318 671.75 352.625 C681.83663491 345.07435142 691.64954543 337.24059681 701.2265625 329.0546875 C704.06855565 326.63058244 706.96540065 324.28018601 709.875 321.9375 C714.95289439 317.80708445 719.75813853 313.42918232 724.5546875 308.98046875 C726.71590548 306.98761761 728.89596969 305.04042215 731.125 303.125 C751.65368231 285.20379145 773.30856557 265.89560384 788.91308594 243.43115234 C790.40576772 241.30462767 791.95008914 239.22382626 793.5078125 237.14453125 C835.41169279 180.91702999 858.63525225 108.06428088 852.02416992 37.81103516 C850.9233686 26.00707299 850.22568297 14.56152433 857.3125 4.4375 C864.13131446 -2.03163166 871.28586497 -2.09225019 880.20703125 -1.86328125 C888.635883 -1.40414407 893.21419146 2.73787904 898.90234375 8.69921875 C903.13182171 13.50450894 907.02904486 18.55169047 910.91845703 23.63330078 C912.24801349 25.35404023 913.59997236 27.05328886 914.96484375 28.74609375 C934.5042499 53.02800423 950.3885187 79.60023581 964.3125 107.4375 C964.6842334 108.16775391 965.0559668 108.89800781 965.43896484 109.65039062 C983.3501938 144.9522221 993.39569742 185.03446632 996.3125 224.4375 C996.36889648 225.18257812 996.42529297 225.92765625 996.48339844 226.6953125 C999.91404261 273.9529434 992.83427744 320.75619032 977.3125 365.4375 C976.96848145 366.42959473 976.62446289 367.42168945 976.27001953 368.44384766 C967.82449284 392.48899054 956.9570826 415.33054807 944.3125 437.4375 C943.79574707 438.3445166 943.27899414 439.2515332 942.74658203 440.18603516 C920.94698225 478.26320622 894.52900844 515.43928882 863.3125 546.4375 C861.93030555 547.83005055 860.54886865 549.22335321 859.16796875 550.6171875 C857.61204101 552.18235315 856.0560498 553.7474557 854.5 555.3125 C853.73107422 556.08980469 852.96214844 556.86710938 852.16992188 557.66796875 C847.96025626 561.89539667 843.66874812 565.93534564 839.14575195 569.82470703 C836.40392812 572.23681094 833.86035494 574.82387164 831.3125 577.4375 C827.48531596 581.31730782 823.59173377 585.0001513 819.4375 588.53125 C816.61856068 591.06000439 813.97311163 593.74396001 811.3125 596.4375 C807.48261987 600.31477963 803.59198698 603.99993606 799.4375 607.53125 C796.61852633 610.06003521 793.9735472 612.74434736 791.3125 615.4375 C786.80703763 619.98611681 782.21380177 624.31334158 777.3125 628.4375 C776.35988281 629.25605469 775.40726563 630.07460938 774.42578125 630.91796875 C767.19338911 637.11779783 759.79742947 643.07609827 752.27246094 648.91601562 C750.14023508 650.57122633 748.0113694 652.23069911 745.8828125 653.890625 C737.05202603 660.7734714 728.20291841 667.63181034 719.3125 674.4375 C718.55630371 675.01725586 717.80010742 675.59701172 717.02099609 676.19433594 C705.32289863 685.15855228 693.54896837 694.00645055 681.65966797 702.71533203 C678.48129884 705.04737029 675.31155248 707.39099944 672.14135742 709.73413086 C668.97646109 712.07121051 665.80681269 714.40177545 662.63574219 716.73046875 C661.10665555 717.85398428 659.5786307 718.97894655 658.05175781 720.10546875 C647.02715715 728.23038232 635.74926325 735.8578365 624.20336914 743.22338867 C622.56181421 744.27741742 620.9356762 745.35538254 619.3125 746.4375 C619.84037109 747.79101562 619.84037109 747.79101562 620.37890625 749.171875 C637.51541894 794.56540328 643.96048078 850.50715699 634.3125 898.4375 C634.00650879 900.00129395 634.00650879 900.00129395 633.69433594 901.59667969 C625.57899353 942.291519 611.55759369 980.77485496 590.3125 1016.4375 C589.85085449 1017.22398926 589.38920898 1018.01047852 588.91357422 1018.82080078 C582.03762808 1030.53344849 574.42691374 1041.55237037 566.3125 1052.4375 C565.78978516 1053.14181152 565.26707031 1053.84612305 564.72851562 1054.57177734 C561.28189281 1059.21304201 557.80754449 1063.83260851 554.3125 1068.4375 C553.86777344 1069.02402344 553.42304687 1069.61054687 552.96484375 1070.21484375 C543.93817038 1082.09771824 534.45427289 1093.56465596 524.68896484 1104.84521484 C523.47158134 1106.25347578 522.26068672 1107.6673404 521.05078125 1109.08203125 C515.85035035 1115.07938477 510.3545072 1120.43759673 503.75 1124.875 C500.32819875 1127.24631599 497.85454805 1130.10130753 495.1796875 1133.26953125 C489.4312851 1139.94393153 482.99468949 1145.63937731 476.12109375 1151.12109375 C473.2938994 1153.45284097 470.65622783 1155.91388853 468 1158.4375 C463.9103324 1162.19271845 459.70286104 1165.41512303 455.0625 1168.4375 C454.49619873 1168.81132813 453.92989746 1169.18515625 453.34643555 1169.5703125 C444.86654391 1174.91119774 436.08238742 1175.38969207 426.3125 1174.4375 C421.99329789 1173.27603389 418.23739179 1171.56551878 414.3125 1169.4375 C413.41144531 1168.9528125 412.51039063 1168.468125 411.58203125 1167.96875 C404.07442394 1163.54868682 397.99862282 1157.77838452 391.74169922 1151.79443359 C387.9167106 1148.16285061 383.92750114 1144.72547599 379.8046875 1141.4375 C374.63291642 1137.31187065 369.73760452 1133.04936526 365.0625 1128.375 C364.59166992 1127.90489502 364.12083984 1127.43479004 363.63574219 1126.95043945 C360.99468352 1124.26843057 358.49128395 1121.50415762 356.0390625 1118.6484375 C351.91338432 1113.89251006 347.43087453 1109.53011181 342.9375 1105.125 C337.05945531 1099.30407808 331.40567988 1093.53511337 326.3203125 1087.00390625 C324.46302593 1084.62990377 322.52562704 1082.34767729 320.54907227 1080.07275391 C265.51606857 1016.50405931 229.77266491 939.48105844 229.9375 854.625 C229.93771149 853.60857422 229.93792297 852.59214844 229.93814087 851.54492188 C229.97523219 833.55545356 231.17011832 816.1737529 234.3125 798.4375 C234.49441895 797.40415527 234.67633789 796.37081055 234.86376953 795.30615234 C237.78517227 779.36244675 242.51960722 763.90230537 247.3125 748.4375 C243.3175644 744.16840215 238.9572465 740.86338222 234.1875 737.5 C232.56840788 736.34459387 230.94993821 735.1883151 229.33203125 734.03125 C228.5013916 733.43828125 227.67075195 732.8453125 226.81494141 732.234375 C222.80906884 729.35796309 218.84122912 726.43071928 214.875 723.5 C214.08923584 722.92008301 213.30347168 722.34016602 212.49389648 721.74267578 C209.30069537 719.38533147 206.10888659 717.02610534 202.91699219 714.66699219 C194.41156265 708.38248265 185.89441379 702.11730365 177.3125 695.9375 C168.74338991 689.76691624 160.23975219 683.51023276 151.74755859 677.234375 C149.23680415 675.38164263 146.72241845 673.5339369 144.20703125 671.6875 C143.36648193 671.0699585 142.52593262 670.45241699 141.65991211 669.81616211 C140.071551 668.64939818 138.4825729 667.48347346 136.89282227 666.31860352 C121.89159848 655.28902199 107.38901777 643.66103522 93.84619141 630.87841797 C91.33599829 628.52006716 88.7925418 626.19835716 86.25 623.875 C85.25903442 622.96753545 84.26814869 622.05998369 83.27734375 621.15234375 C82.78862793 620.70487793 82.29991211 620.25741211 81.79638672 619.79638672 C79.80167482 617.96970583 77.80790093 616.14200295 75.81420898 614.31420898 C74.81510376 613.39826778 73.81591789 612.48241455 72.81665039 611.56665039 C70.29053926 609.25156372 67.76544702 606.93538212 65.2421875 604.6171875 C60.63900235 600.38983249 56.02836224 596.17223917 51.375 592 C46.40737617 587.54106085 41.50566748 583.01311669 36.60546875 578.48046875 C33.49467043 575.6035513 30.3743261 572.73721304 27.25 569.875 C26.51680542 569.20259277 26.51680542 569.20259277 25.76879883 568.51660156 C23.25487427 566.21213615 20.7363508 563.91296569 18.2109375 561.62109375 C10.12650789 554.27277005 2.2376657 546.82519319 -4.8828125 538.5234375 C-6.90401276 536.18724499 -8.98128839 533.90785149 -11.0625 531.625 C-14.90751592 527.35923318 -18.58510845 522.98834049 -22.19140625 518.51953125 C-23.99518558 516.29232955 -25.8132883 514.08429892 -27.65234375 511.88671875 C-36.30231463 501.4931778 -44.09048667 490.61777475 -51.6875 479.4375 C-52.28771973 478.55835938 -52.88793945 477.67921875 -53.50634766 476.7734375 C-61.35830196 465.2485578 -68.88076511 453.61151684 -75.6875 441.4375 C-76.44329346 440.08615967 -76.44329346 440.08615967 -77.21435547 438.70751953 C-107.75560847 383.7993191 -128.06462893 324.60240677 -130.6875 261.4375 C-130.72214355 260.60395996 -130.75678711 259.77041992 -130.79248047 258.91162109 C-133.59463317 177.82323955 -99.6593841 96.71669581 -50.6875 33.4375 C-49.64562911 32.05582206 -48.60538765 30.67291456 -47.56640625 29.2890625 C-19.53343171 -7.94925743 -19.53343171 -7.94925743 0 0 Z " fill="#09096F" transform="translate(130.6875,365.5625)"/>
<path d="M0 0 C9.13376844 5.85290262 15.60634294 15.26639904 22.10595703 23.75830078 C23.43551349 25.47904023 24.78747236 27.17828886 26.15234375 28.87109375 C45.6917499 53.15300423 61.5760187 79.72523581 75.5 107.5625 C75.8717334 108.29275391 76.2434668 109.02300781 76.62646484 109.77539062 C94.5376938 145.0772221 104.58319742 185.15946632 107.5 224.5625 C107.55639648 225.30757812 107.61279297 226.05265625 107.67089844 226.8203125 C111.10154261 274.0779434 104.02177744 320.88119032 88.5 365.5625 C87.98397217 367.05064209 87.98397217 367.05064209 87.45751953 368.56884766 C79.01199284 392.61399054 68.1445826 415.45554807 55.5 437.5625 C54.98324707 438.4695166 54.46649414 439.3765332 53.93408203 440.31103516 C32.13448225 478.38820622 5.71650844 515.56428882 -25.5 546.5625 C-26.88219445 547.95505055 -28.26363135 549.34835321 -29.64453125 550.7421875 C-31.20045899 552.30735315 -32.7564502 553.8724557 -34.3125 555.4375 C-35.08142578 556.21480469 -35.85035156 556.99210938 -36.64257812 557.79296875 C-40.85224374 562.02039667 -45.14375188 566.06034564 -49.66674805 569.94970703 C-52.40857188 572.36181094 -54.95214506 574.94887164 -57.5 577.5625 C-61.32718404 581.44230782 -65.22076623 585.1251513 -69.375 588.65625 C-72.19393932 591.18500439 -74.83938837 593.86896001 -77.5 596.5625 C-81.32988013 600.43977963 -85.22051302 604.12493606 -89.375 607.65625 C-92.19397367 610.18503521 -94.8389528 612.86934736 -97.5 615.5625 C-102.00546237 620.11111681 -106.59869823 624.43834158 -111.5 628.5625 C-112.45261719 629.38105469 -113.40523437 630.19960938 -114.38671875 631.04296875 C-121.61911089 637.24279783 -129.01507053 643.20109827 -136.54003906 649.04101562 C-138.67226492 650.69622633 -140.8011306 652.35569911 -142.9296875 654.015625 C-151.76047397 660.8984714 -160.60958159 667.75681034 -169.5 674.5625 C-170.25619629 675.14225586 -171.01239258 675.72201172 -171.79150391 676.31933594 C-183.48960137 685.28355228 -195.26353163 694.13145055 -207.15283203 702.84033203 C-210.33120116 705.17237029 -213.50094752 707.51599944 -216.67114258 709.85913086 C-219.83603891 712.19621051 -223.00568731 714.52677545 -226.17675781 716.85546875 C-227.70584445 717.97898428 -229.2338693 719.10394655 -230.76074219 720.23046875 C-239.46628085 726.6462793 -248.28188165 732.86093166 -257.3125 738.8125 C-258.15482178 739.37396729 -258.99714355 739.93543457 -259.86499023 740.51391602 C-261.05523804 741.28819946 -261.05523804 741.28819946 -262.26953125 742.078125 C-263.31524292 742.76310059 -263.31524292 742.76310059 -264.38208008 743.46191406 C-266.745 744.68981527 -268.8789043 745.15832973 -271.5 745.5625 C-271.72026855 745.00079102 -271.94053711 744.43908203 -272.16748047 743.86035156 C-289.31443597 700.39788851 -314.77854294 660.98363695 -345.25 625.625 C-345.76884766 625.02212158 -346.28769531 624.41924316 -346.82226562 623.7980957 C-349.43784391 620.79824011 -352.11766605 617.91466883 -354.953125 615.12109375 C-357.26628075 612.84088894 -359.43506634 610.51221944 -361.53515625 608.03515625 C-366.7057434 602.04823651 -372.37921575 596.53464384 -377.97875977 590.95336914 C-379.93295624 589.0045313 -381.88175147 587.05040728 -383.83007812 585.09570312 C-392.1093898 576.80980949 -392.1093898 576.80980949 -400.82446289 568.98852539 C-403.62989572 566.6008621 -406.30528597 564.07346463 -409 561.5625 C-419.73396761 551.62783782 -430.95615685 542.45540834 -442.4765625 533.44921875 C-443.11062012 532.95325195 -443.74467773 532.45728516 -444.39794922 531.94628906 C-445.60366505 531.00473085 -446.81094494 530.06517095 -448.02001953 529.12792969 C-453.9181384 524.52868713 -453.9181384 524.52868713 -455.5 522.5625 C-455.5 521.5725 -455.5 520.5825 -455.5 519.5625 C-453.25810896 517.80875183 -451.05650274 516.26956149 -448.66796875 514.73828125 C-447.96158768 514.27318649 -447.2552066 513.80809174 -446.52742004 513.3289032 C-444.25375186 511.83437579 -441.97115363 510.35421481 -439.6875 508.875 C-436.71990948 506.93777385 -433.75601355 504.99495132 -430.79296875 503.05078125 C-430.06971909 502.57747879 -429.34646942 502.10417633 -428.6013031 501.61653137 C-423.60096745 498.33000273 -418.73808004 494.89363176 -413.92651367 491.33520508 C-410.05814492 488.50914355 -406.06351828 485.8831797 -402.0625 483.25 C-392.52721853 476.93211823 -383.05090827 470.53000155 -373.5925293 464.09790039 C-372.38982703 463.28008739 -371.18710876 462.46229792 -369.984375 461.64453125 C-369.38019241 461.2336879 -368.77600983 460.82284454 -368.15351868 460.39955139 C-363.594026 457.30105897 -359.02506365 454.21680892 -354.453125 451.13671875 C-336.90040453 439.3127511 -336.90040453 439.3127511 -319.66430664 427.03417969 C-314.45475663 423.22210127 -309.15446607 419.56130538 -303.8125 415.9375 C-297.46531532 411.62887868 -291.2183802 407.21878618 -285.05517578 402.65136719 C-280.47812594 399.26359094 -275.8470691 395.96071137 -271.1875 392.6875 C-255.80799755 381.86456374 -240.70540787 370.74041479 -225.77783203 359.30126953 C-222.88852066 357.09573088 -219.97831887 354.92036318 -217.0625 352.75 C-206.97586509 345.19935142 -197.16295457 337.36559681 -187.5859375 329.1796875 C-184.74394435 326.75558244 -181.84709935 324.40518601 -178.9375 322.0625 C-173.85960561 317.93208445 -169.05436147 313.55418232 -164.2578125 309.10546875 C-162.09659452 307.11261761 -159.91653031 305.16542215 -157.6875 303.25 C-137.15881769 285.32879145 -115.50393443 266.02060384 -99.89941406 243.55615234 C-98.40673228 241.42962767 -96.86241086 239.34882626 -95.3046875 237.26953125 C-53.40080721 181.04202999 -30.17724775 108.18928088 -36.78833008 37.93603516 C-37.8891314 26.13207299 -38.58681703 14.68652433 -31.5 4.5625 C-23.87627105 -2.67026849 -9.73378159 -4.32393137 0 0 Z " fill="#22B1C1" transform="translate(1019.5,365.4375)"/>
<path d="M0 0 C6.26887587 3.21884829 11.51651447 6.8208145 14.0234375 13.578125 C15.50964194 18.44030686 15.69360836 22.94823089 15.5625 28 C15.55734375 28.79857422 15.5521875 29.59714844 15.546875 30.41992188 C15.49040376 34.75055984 15.12909438 38.91419066 14.54394531 43.2097168 C7.13645068 114.51075954 35.81809156 192.5493846 80.3125 247.4375 C91.68997278 261.3547716 104.14017694 274.32738346 116.8125 287.0625 C117.44639648 287.70106934 118.08029297 288.33963867 118.73339844 288.99755859 C122.51686155 292.76811225 126.42238384 296.34292217 130.46435547 299.83447266 C132.89718985 301.94464314 135.25954524 304.1273054 137.625 306.3125 C142.14503729 310.43976163 146.81045132 314.32340135 151.57421875 318.1640625 C154.3449781 320.4644647 156.985878 322.86271472 159.625 325.3125 C165.33802004 330.56296018 171.37129087 335.30707139 177.50976562 340.04199219 C179.89073121 341.88511235 182.25464227 343.74940698 184.6184082 345.61450195 C204.52543095 361.31601051 224.85400144 376.46415657 245.3125 391.4375 C246.41343994 392.24501709 246.41343994 392.24501709 247.53662109 393.06884766 C259.01909383 401.47944587 270.71193522 409.55204513 282.49804688 417.53027344 C287.10998531 420.65557384 291.71074316 423.79723654 296.3125 426.9375 C298.14186849 428.18498176 299.97129565 429.4323775 301.80078125 430.6796875 C302.70779785 431.29811523 303.61481445 431.91654297 304.54931641 432.55371094 C307.33868223 434.45534963 310.12829646 436.35662342 312.91796875 438.2578125 C322.32997497 444.67269942 331.73751211 451.09398024 341.13623047 457.52832031 C349.92078798 463.54082937 358.71760636 469.53533557 367.51416016 475.53027344 C371.19979313 478.04224036 374.88497445 480.55486931 378.57006836 483.06762695 C380.39760867 484.31369935 382.22524532 485.55963046 384.05297852 486.80541992 C388.68832213 489.96507535 393.32212094 493.12695578 397.953125 496.29296875 C409.35585947 504.08480437 420.80165047 511.80623309 432.3125 519.4375 C430.91186931 524.06531486 428.73635555 526.13096674 425 529.125 C424.47164551 529.55288818 423.94329102 529.98077637 423.39892578 530.42163086 C419.013159 533.95049025 414.52415451 537.34643074 410.04101562 540.75 C404.87082413 544.70696966 400.098348 549.03187481 395.3125 553.4375 C393.98342593 554.60901654 392.65028972 555.77594606 391.3125 556.9375 C362.10262475 582.2018606 362.10262475 582.2018606 336.39453125 610.859375 C333.9291211 613.91222809 331.263093 616.7190436 328.5625 619.5625 C322.17022169 626.36491812 316.55986316 633.67685899 311.00097656 641.16650391 C309.29040949 643.46721167 307.5641868 645.7555232 305.8359375 648.04296875 C293.97309892 663.83484794 283.19349258 680.33755568 273.3125 697.4375 C272.88759277 698.16308105 272.46268555 698.88866211 272.02490234 699.63623047 C263.20998034 714.76338521 255.56234342 730.69475613 250.3125 747.4375 C247.06170878 746.82441615 245.02867557 745.7197267 242.3984375 743.734375 C241.64691406 743.17298828 240.89539063 742.61160156 240.12109375 742.03320312 C239.31800781 741.42412109 238.51492188 740.81503906 237.6875 740.1875 C235.96675107 738.90023223 234.24538247 737.61379243 232.5234375 736.328125 C231.65170898 735.67521484 230.77998047 735.02230469 229.88183594 734.34960938 C226.05615707 731.50252491 222.18632559 728.71852072 218.3125 725.9375 C208.11793346 718.59888584 198.0184603 711.13293662 187.91699219 703.66699219 C179.41156224 697.38248234 170.89439593 691.11732899 162.3125 684.9375 C153.62083398 678.67831389 144.98774424 672.34199163 136.38085938 665.96679688 C134.60659229 664.65494501 132.82798284 663.34940887 131.046875 662.046875 C117.99242566 652.41654352 105.62700529 641.98878069 93.83007812 630.86230469 C91.32462958 628.51002063 88.78676603 626.19339896 86.25 623.875 C85.25904123 622.96752801 84.26815551 622.05997625 83.27734375 621.15234375 C82.78862793 620.70487793 82.29991211 620.25741211 81.79638672 619.79638672 C79.80167482 617.96970583 77.80790093 616.14200295 75.81420898 614.31420898 C74.81510376 613.39826778 73.81591789 612.48241455 72.81665039 611.56665039 C70.29053926 609.25156372 67.76544702 606.93538212 65.2421875 604.6171875 C60.63900235 600.38983249 56.02836224 596.17223917 51.375 592 C46.40737617 587.54106085 41.50566748 583.01311669 36.60546875 578.48046875 C33.49467043 575.6035513 30.3743261 572.73721304 27.25 569.875 C26.51680542 569.20259277 26.51680542 569.20259277 25.76879883 568.51660156 C23.25487427 566.21213615 20.7363508 563.91296569 18.2109375 561.62109375 C10.12650789 554.27277005 2.2376657 546.82519319 -4.8828125 538.5234375 C-6.90401276 536.18724499 -8.98128839 533.90785149 -11.0625 531.625 C-14.90751592 527.35923318 -18.58510845 522.98834049 -22.19140625 518.51953125 C-23.99518558 516.29232955 -25.8132883 514.08429892 -27.65234375 511.88671875 C-36.30231463 501.4931778 -44.09048667 490.61777475 -51.6875 479.4375 C-52.28771973 478.55835938 -52.88793945 477.67921875 -53.50634766 476.7734375 C-61.35830196 465.2485578 -68.88076511 453.61151684 -75.6875 441.4375 C-76.44329346 440.08615967 -76.44329346 440.08615967 -77.21435547 438.70751953 C-107.75560847 383.7993191 -128.06462893 324.60240677 -130.6875 261.4375 C-130.72214355 260.60395996 -130.75678711 259.77041992 -130.79248047 258.91162109 C-133.59463317 177.82323955 -99.6593841 96.71669581 -50.6875 33.4375 C-49.64562911 32.05582206 -48.60538765 30.67291456 -47.56640625 29.2890625 C-19.53343171 -7.94925743 -19.53343171 -7.94925743 0 0 Z " fill="#F69610" transform="translate(130.6875,365.5625)"/>
<path d="M0 0 C6.82725444 4.20776966 12.76505878 9.88382856 18.6875 15.25 C19.70288811 16.153912 20.71850251 17.0575699 21.734375 17.9609375 C28.90445403 24.40525752 35.73457388 31.19687908 42.5625 38 C43.45461182 38.88743896 44.34672363 39.77487793 45.26586914 40.68920898 C50.28048934 45.7160657 55.08209873 50.8471971 59.6875 56.25 C60.55632812 57.23742188 61.42515625 58.22484375 62.3203125 59.2421875 C91.49378909 92.98830932 114.9322568 134.35601279 127 177.375 C127.23041992 178.18380615 127.46083984 178.9926123 127.69824219 179.82592773 C132.06001689 196.18578536 133.19992967 212.38639463 133.13354492 229.2644043 C133.12503587 232.54865361 133.15392441 235.83115521 133.18554688 239.11523438 C133.32706985 281.81519571 116.99476548 320.5617868 94.9375 356.5 C94.41889404 357.34522217 93.90028809 358.19044434 93.3659668 359.0612793 C88.26206072 367.20694811 82.35307103 374.62220013 76.0625 381.875 C75.55452881 382.46418213 75.04655762 383.05336426 74.52319336 383.66040039 C72.91371277 385.5257055 71.30093767 387.38811719 69.6875 389.25 C68.61846448 390.48565536 67.54945405 391.72133244 66.48046875 392.95703125 C64.32386936 395.44857932 62.16466068 397.93783612 60.00390625 400.42578125 C57.71376175 403.06364046 55.43084584 405.70754752 53.15234375 408.35546875 C52.57218506 409.02843994 51.99202637 409.70141113 51.39428711 410.39477539 C50.29068647 411.67517945 49.18853461 412.95683431 48.08813477 414.23999023 C45.08199578 417.72333996 41.97491281 421.02560469 38.6875 424.25 C37.85992188 425.10078125 37.03234375 425.9515625 36.1796875 426.828125 C30.84724821 432.27198839 25.41527444 437.31567246 19.43359375 442.05859375 C17.58346804 443.53500985 15.76308411 445.04938698 13.97265625 446.59765625 C4.70356273 454.56349129 -4.70644688 460.72677962 -17.3125 460.25 C-28.79922837 459.29439781 -37.54618629 452.44609015 -45.62109375 444.76171875 C-48.13662004 442.41413761 -50.71859125 440.29286829 -53.4375 438.1875 C-57.67253047 434.8638052 -61.42116454 431.24625044 -65.171875 427.390625 C-67.10642178 425.45607822 -69.09151634 423.69267331 -71.1875 421.9375 C-75.60405442 418.13943742 -79.44657221 413.86256205 -83.33203125 409.5390625 C-85.33616591 407.31076807 -87.37430427 405.12345238 -89.44921875 402.9609375 C-138.47804386 351.6856088 -164.76421751 287.84781587 -163.39697266 217.14013672 C-162.51616519 187.00430224 -152.40167342 157.15175539 -139.3125 130.25 C-138.97025391 129.54488281 -138.62800781 128.83976563 -138.27539062 128.11328125 C-129.04284049 109.36245409 -117.65236529 91.46633679 -104.72998047 75.05273438 C-103.28675495 73.21725776 -101.86271112 71.36811225 -100.44140625 69.515625 C-95.70557644 63.37404956 -90.84419615 57.42801748 -85.578125 51.7265625 C-84.33038023 50.36264839 -83.09050005 48.99082885 -81.88793945 47.58691406 C-77.01046698 41.89397891 -71.80510063 36.55643713 -66.50708008 31.25927734 C-65.00765328 29.75766444 -63.5164319 28.2482151 -62.02539062 26.73828125 C-56.11104872 20.78983738 -49.94707485 15.39121654 -43.3125 10.25 C-42.27152762 9.3769069 -41.23639836 8.49672914 -40.2109375 7.60546875 C-39.37820313 6.89003906 -38.54546875 6.17460938 -37.6875 5.4375 C-36.84960938 4.70917969 -36.01171875 3.98085937 -35.1484375 3.23046875 C-25.75713168 -3.3279225 -10.54443748 -4.70201206 0 0 Z " fill="#22B1C1" transform="translate(578.3125,1.75)"/>
<path d="M0 0 C3.4217685 1.27129638 6.34930951 2.73446774 9.37890625 4.765625 C10.20737061 5.31871338 11.03583496 5.87180176 11.8894043 6.44165039 C12.77152588 7.03840576 13.65364746 7.63516113 14.5625 8.25 C15.48780518 8.87189209 16.41311035 9.49378418 17.36645508 10.13452148 C32.38142044 20.26219784 47.13229694 30.75487077 61.78662109 41.39550781 C64.00695703 43.00504319 66.23126042 44.60892787 68.45703125 46.2109375 C83.80124415 57.25689689 99.08687193 68.37598288 114 80 C115.18474924 80.91425249 116.36965029 81.82830829 117.5546875 82.7421875 C123.78216029 87.56542623 129.78941985 92.50273805 135.59375 97.8359375 C138.06481506 100.05829146 140.60366367 102.16013238 143.1875 104.25 C149.62711993 109.46518515 155.85455403 114.91331752 162.10351562 120.35351562 C165.07855704 122.93637857 168.06997279 125.49994085 171.0625 128.0625 C171.92693726 128.80536255 171.92693726 128.80536255 172.80883789 129.56323242 C175.63955509 131.99324543 178.48185249 134.40597965 181.35546875 136.78515625 C188.37182462 142.63144411 194.97515359 148.79426131 201.4375 155.25 C202.18290039 155.99459473 202.92830078 156.73918945 203.69628906 157.50634766 C208.32478263 162.18160418 212.72217034 167.00335741 217 172 C217.88917757 173.02095994 218.77848958 174.04180281 219.66796875 175.0625 C253.86882859 214.93699086 275.98480928 258.4100869 273 312 C271.1811673 333.10423335 264.20187924 353.57578957 254.76171875 372.44140625 C252.95300421 375.94411176 252.95300421 375.94411176 251.67578125 379.53515625 C249.59252557 383.84249375 246.92615501 386.59656772 243.5 389.875 C242.56450317 390.79007324 242.56450317 390.79007324 241.61010742 391.72363281 C237.15244787 396.03150771 232.50493659 400.02417528 227.6328125 403.859375 C224.85233357 406.12006113 222.28453514 408.53168089 219.6875 411 C215.5978324 414.75521845 211.39036104 417.97762303 206.75 421 C205.9005481 421.56074219 205.9005481 421.56074219 205.03393555 422.1328125 C196.55404391 427.47369774 187.76988742 427.95219207 178 427 C173.68079789 425.83853389 169.92489179 424.12801878 166 422 C164.64841797 421.27296875 164.64841797 421.27296875 163.26953125 420.53125 C155.76192394 416.11118682 149.68612282 410.34088452 143.42919922 404.35693359 C139.6042106 400.72535061 135.61500114 397.28797599 131.4921875 394 C126.32041642 389.87437065 121.42510452 385.61186526 116.75 380.9375 C116.04375488 380.23234253 116.04375488 380.23234253 115.32324219 379.51293945 C112.68218352 376.83093057 110.17878395 374.06665762 107.7265625 371.2109375 C103.60088432 366.45501006 99.11837453 362.09261181 94.625 357.6875 C88.74695531 351.86657808 83.09317988 346.09761337 78.0078125 339.56640625 C76.15052593 337.19240377 74.21312704 334.91017729 72.23657227 332.63525391 C17.20356857 269.06655931 -18.53983509 192.04355844 -18.375 107.1875 C-18.37478851 106.17107422 -18.37457703 105.15464844 -18.37435913 104.10742188 C-18.33726781 86.11795356 -17.14238168 68.7362529 -14 51 C-13.72712158 49.44998291 -13.72712158 49.44998291 -13.44873047 47.86865234 C-5.72701985 5.72701985 -5.72701985 5.72701985 0 0 Z " fill="#22B1C1" transform="translate(379,1113)"/>
</svg>
